<svg xmlns="http://www.w3.org/2000/svg" viewBox="0 0 688 48" width="688" height="48">
  <!-- 0-atoms/address/big — bech32 address with hash-bar visualization -->
  <!-- prysm atom, acid palette, scale 4x from Sketch -->

  <!-- address prefix -->
  <text x="0" y="31" font-family="monospace" font-size="20" fill="#00fe00">bostrom1</text>

  <!-- hash bars: up group (bars grow upward from center) -->
  <g id="hash-bars" transform="translate(112, 0)">
    <rect x="0" y="16" width="12" height="8" fill="#00fe00"/>
    <rect x="16" y="12" width="12" height="12" fill="#d500f9"/>
    <rect x="32" y="20" width="12" height="4" fill="#00fe00"/>
    <rect x="48" y="0" width="12" height="24" fill="#00acff"/>
    <rect x="64" y="8" width="12" height="16" fill="#00acff"/>
    <rect x="80" y="4" width="12" height="20" fill="#00fe00"/>
    <rect x="96" y="20" width="12" height="4" fill="#ff5b00"/>
    <rect x="112" y="4" width="12" height="20" fill="#00fe00"/>
    <rect x="128" y="16" width="12" height="8" fill="#00fe00"/>
    <rect x="144" y="20" width="12" height="4" fill="#d500f9"/>
    <rect x="160" y="12" width="12" height="12" fill="#00acff"/>
    <rect x="176" y="0" width="12" height="24" fill="#fcf000"/>
    <rect x="192" y="16" width="12" height="8" fill="#00fe00"/>
    <rect x="208" y="12" width="12" height="12" fill="#d500f9"/>
    <rect x="224" y="20" width="12" height="4" fill="#00fe00"/>
    <rect x="240" y="0" width="12" height="24" fill="#00acff"/>
    <rect x="256" y="8" width="12" height="16" fill="#00acff"/>
    <rect x="272" y="4" width="12" height="20" fill="#00fe00"/>
    <rect x="288" y="20" width="12" height="4" fill="#ff5b00"/>
    <rect x="304" y="4" width="12" height="20" fill="#00fe00"/>
    <rect x="320" y="16" width="12" height="8" fill="#00fe00"/>
    <rect x="336" y="20" width="12" height="4" fill="#d500f9"/>
    <rect x="352" y="12" width="12" height="12" fill="#00acff"/>
    <rect x="368" y="0" width="12" height="24" fill="#fcf000"/>
    <rect x="384" y="8" width="12" height="16" fill="#00acff"/>
    <rect x="400" y="4" width="12" height="20" fill="#00fe00"/>
    <rect x="416" y="20" width="12" height="4" fill="#ff5b00"/>
    <rect x="432" y="4" width="12" height="20" fill="#00fe00"/>
    <rect x="448" y="16" width="12" height="8" fill="#00fe00"/>
    <rect x="464" y="20" width="12" height="4" fill="#d500f9"/>
    <rect x="480" y="12" width="12" height="12" fill="#00acff"/>
    <rect x="496" y="0" width="12" height="24" fill="#fcf000"/>
    <rect x="0" y="24" width="12" height="8" fill="#00fe00"/>
    <rect x="16" y="24" width="12" height="12" fill="#d500f9"/>
    <rect x="32" y="24" width="12" height="4" fill="#00fe00"/>
    <rect x="48" y="24" width="12" height="24" fill="#00acff"/>
    <rect x="64" y="24" width="12" height="16" fill="#00acff"/>
    <rect x="80" y="24" width="12" height="20" fill="#00fe00"/>
    <rect x="96" y="24" width="12" height="4" fill="#ff5b00"/>
    <rect x="112" y="24" width="12" height="20" fill="#00fe00"/>
    <rect x="128" y="24" width="12" height="8" fill="#00fe00"/>
    <rect x="144" y="24" width="12" height="4" fill="#d500f9"/>
    <rect x="160" y="24" width="12" height="12" fill="#00acff"/>
    <rect x="176" y="24" width="12" height="24" fill="#fcf000"/>
    <rect x="192" y="24" width="12" height="8" fill="#00fe00"/>
    <rect x="208" y="24" width="12" height="12" fill="#d500f9"/>
    <rect x="224" y="24" width="12" height="4" fill="#00fe00"/>
    <rect x="240" y="24" width="12" height="24" fill="#00acff"/>
    <rect x="256" y="24" width="12" height="16" fill="#00acff"/>
    <rect x="272" y="24" width="12" height="20" fill="#00fe00"/>
    <rect x="288" y="24" width="12" height="4" fill="#ff5b00"/>
    <rect x="304" y="24" width="12" height="20" fill="#00fe00"/>
    <rect x="320" y="24" width="12" height="8" fill="#00fe00"/>
    <rect x="336" y="24" width="12" height="4" fill="#d500f9"/>
    <rect x="352" y="24" width="12" height="12" fill="#00acff"/>
    <rect x="368" y="24" width="12" height="24" fill="#fcf000"/>
    <rect x="384" y="24" width="12" height="16" fill="#00acff"/>
    <rect x="400" y="24" width="12" height="20" fill="#00fe00"/>
    <rect x="416" y="24" width="12" height="4" fill="#ff5b00"/>
    <rect x="432" y="24" width="12" height="20" fill="#00fe00"/>
    <rect x="448" y="24" width="12" height="8" fill="#00fe00"/>
    <rect x="464" y="24" width="12" height="4" fill="#d500f9"/>
    <rect x="480" y="24" width="12" height="12" fill="#00acff"/>
    <rect x="496" y="24" width="12" height="24" fill="#fcf000"/>
  </g>

  <!-- address suffix -->
  <text x="640" y="31" font-family="monospace" font-size="20" fill="#00fe00">int5</text>
</svg>