<svg xmlns="http://www.w3.org/2000/svg" viewBox="0 0 312 48" width="600" height="92">
  <!-- address-big.svg -->
  <text x="0" y="31" font-family="monospace" font-size="20" fill="#00fe00">bostrom1</text>
  <g id="hash-bars" transform="translate(100, 0)">
    <rect x="0" y="16" width="3" height="8" fill="#00fe00"/>
    <rect x="5" y="12" width="3" height="12" fill="#d500f9"/>
    <rect x="10" y="20" width="3" height="4" fill="#00fe00"/>
    <rect x="15" y="0" width="3" height="24" fill="#00acff"/>
    <rect x="20" y="8" width="3" height="16" fill="#00acff"/>
    <rect x="25" y="4" width="3" height="20" fill="#00fe00"/>
    <rect x="30" y="20" width="3" height="4" fill="#ff5b00"/>
    <rect x="35" y="4" width="3" height="20" fill="#00fe00"/>
    <rect x="40" y="16" width="3" height="8" fill="#00fe00"/>
    <rect x="45" y="20" width="3" height="4" fill="#d500f9"/>
    <rect x="50" y="12" width="3" height="12" fill="#00acff"/>
    <rect x="55" y="0" width="3" height="24" fill="#fcf000"/>
    <rect x="60" y="16" width="3" height="8" fill="#00fe00"/>
    <rect x="65" y="12" width="3" height="12" fill="#d500f9"/>
    <rect x="70" y="20" width="3" height="4" fill="#00fe00"/>
    <rect x="75" y="0" width="3" height="24" fill="#00acff"/>
    <rect x="80" y="8" width="3" height="16" fill="#00acff"/>
    <rect x="85" y="4" width="3" height="20" fill="#00fe00"/>
    <rect x="90" y="20" width="3" height="4" fill="#ff5b00"/>
    <rect x="95" y="4" width="3" height="20" fill="#00fe00"/>
    <rect x="100" y="16" width="3" height="8" fill="#00fe00"/>
    <rect x="105" y="20" width="3" height="4" fill="#d500f9"/>
    <rect x="110" y="12" width="3" height="12" fill="#00acff"/>
    <rect x="115" y="0" width="3" height="24" fill="#fcf000"/>
    <rect x="120" y="8" width="3" height="16" fill="#00acff"/>
    <rect x="125" y="4" width="3" height="20" fill="#00fe00"/>
    <rect x="130" y="20" width="3" height="4" fill="#ff5b00"/>
    <rect x="135" y="4" width="3" height="20" fill="#00fe00"/>
    <rect x="140" y="16" width="3" height="8" fill="#00fe00"/>
    <rect x="145" y="20" width="3" height="4" fill="#d500f9"/>
    <rect x="150" y="12" width="3" height="12" fill="#00acff"/>
    <rect x="155" y="0" width="3" height="24" fill="#fcf000"/>
    <rect x="0" y="24" width="3" height="8" fill="#00fe00"/>
    <rect x="5" y="24" width="3" height="12" fill="#d500f9"/>
    <rect x="10" y="24" width="3" height="4" fill="#00fe00"/>
    <rect x="15" y="24" width="3" height="24" fill="#00acff"/>
    <rect x="20" y="24" width="3" height="16" fill="#00acff"/>
    <rect x="25" y="24" width="3" height="20" fill="#00fe00"/>
    <rect x="30" y="24" width="3" height="4" fill="#ff5b00"/>
    <rect x="35" y="24" width="3" height="20" fill="#00fe00"/>
    <rect x="40" y="24" width="3" height="8" fill="#00fe00"/>
    <rect x="45" y="24" width="3" height="4" fill="#d500f9"/>
    <rect x="50" y="24" width="3" height="12" fill="#00acff"/>
    <rect x="55" y="24" width="3" height="24" fill="#fcf000"/>
    <rect x="60" y="24" width="3" height="8" fill="#00fe00"/>
    <rect x="65" y="24" width="3" height="12" fill="#d500f9"/>
    <rect x="70" y="24" width="3" height="4" fill="#00fe00"/>
    <rect x="75" y="24" width="3" height="24" fill="#00acff"/>
    <rect x="80" y="24" width="3" height="16" fill="#00acff"/>
    <rect x="85" y="24" width="3" height="20" fill="#00fe00"/>
    <rect x="90" y="24" width="3" height="4" fill="#ff5b00"/>
    <rect x="95" y="24" width="3" height="20" fill="#00fe00"/>
    <rect x="100" y="24" width="3" height="8" fill="#00fe00"/>
    <rect x="105" y="24" width="3" height="4" fill="#d500f9"/>
    <rect x="110" y="24" width="3" height="12" fill="#00acff"/>
    <rect x="115" y="24" width="3" height="24" fill="#fcf000"/>
    <rect x="120" y="24" width="3" height="16" fill="#00acff"/>
    <rect x="125" y="24" width="3" height="20" fill="#00fe00"/>
    <rect x="130" y="24" width="3" height="4" fill="#ff5b00"/>
    <rect x="135" y="24" width="3" height="20" fill="#00fe00"/>
    <rect x="140" y="24" width="3" height="8" fill="#00fe00"/>
    <rect x="145" y="24" width="3" height="4" fill="#d500f9"/>
    <rect x="150" y="24" width="3" height="12" fill="#00acff"/>
    <rect x="155" y="24" width="3" height="24" fill="#fcf000"/>
  </g>
  <text x="264" y="31" font-family="monospace" font-size="20" fill="#00fe00">vug5</text>
</svg>